<svg xmlns="http://www.w3.org/2000/svg" width="720" height="320" viewBox="0 0 720 320" role="img" aria-label="Dolphi walk-forward vs SPY">
  <rect width="100%" height="100%" fill="#0f1419"/>
  <text x="56" y="22" fill="#e6edf3" font-family="Segoe UI, system-ui, sans-serif" font-size="14" font-weight="600">Dolphi walk-forward vs SPY</text>
  <text x="56" y="38" fill="#8b949e" font-family="Segoe UI, system-ui, sans-serif" font-size="11">2024-01-31 → 2024-12-31 · portfolio +53.3% · SPY +15.6% · alpha +37.7%</text>
  <line x1="56" y1="276.0" x2="696" y2="276.0" stroke="#30363d" stroke-dasharray="4 4"/>
  <text x="48" y="280.0" fill="#8b949e" font-family="monospace" font-size="10" text-anchor="end">100</text>
  <polyline fill="none" stroke="#58a6ff" stroke-width="2.5" points="56.0,276.0 114.2,271.5 172.4,266.6 230.5,261.9 288.7,254.0 346.9,246.4 405.1,238.5 463.3,232.2 521.5,226.0 579.6,219.7 637.8,212.8 696.0,205.6"/>
  <polyline fill="none" stroke="#3fb950" stroke-width="2.5" points="56.0,276.0 114.2,247.3 172.4,218.0 230.5,190.6 288.7,176.4 346.9,162.7 405.1,148.7 463.3,114.8 521.5,83.2 579.6,51.4 637.8,43.8 696.0,36.0"/>
  <circle cx="696.0" cy="36.0" r="4" fill="#3fb950"/>
  <circle cx="696.0" cy="205.6" r="4" fill="#58a6ff"/>
  <rect x="56" y="292" width="12" height="3" fill="#3fb950"/>
  <text x="74" y="300" fill="#c9d1d9" font-family="Segoe UI, system-ui, sans-serif" font-size="11">Dolphi allocations</text>
  <rect x="216" y="292" width="12" height="3" fill="#58a6ff"/>
  <text x="234" y="300" fill="#c9d1d9" font-family="Segoe UI, system-ui, sans-serif" font-size="11">SPY buy-and-hold</text>
  <text x="56" y="314" fill="#6e7681" font-family="monospace" font-size="10">2024-01-31</text>
  <text x="696" y="314" fill="#6e7681" font-family="monospace" font-size="10" text-anchor="end">2024-12-31</text>
</svg>